<?xml version="1.0" encoding="UTF-8" standalone="no"?>
<!-- Created with Inkscape (http://www.inkscape.org/) -->

<svg
   width="742.85187"
   height="520.85016"
   viewBox="0 0 196.54623 137.80827"
   version="1.1"
   id="svg5"
   inkscape:version="1.2 (56b05e47e7, 2022-06-09, custom)"
   sodipodi:docname="icon.svg"
   inkscape:export-filename="/home/endorama/code/github.com/endorama/2ami/logo.png"
   inkscape:export-xdpi="433.76001"
   inkscape:export-ydpi="433.76001"
   xmlns:inkscape="http://www.inkscape.org/namespaces/inkscape"
   xmlns:sodipodi="http://sodipodi.sourceforge.net/DTD/sodipodi-0.dtd"
   xmlns="http://www.w3.org/2000/svg"
   xmlns:svg="http://www.w3.org/2000/svg"
   xmlns:rdf="http://www.w3.org/1999/02/22-rdf-syntax-ns#"
   xmlns:cc="http://creativecommons.org/ns#"
   xmlns:dc="http://purl.org/dc/elements/1.1/">
  <title
     id="title1217">2ami logo</title>
  <sodipodi:namedview
     id="namedview7"
     pagecolor="#ffffff"
     bordercolor="#666666"
     borderopacity="1.0"
     inkscape:pageshadow="2"
     inkscape:pageopacity="0"
     inkscape:pagecheckerboard="true"
     inkscape:document-units="px"
     showgrid="false"
     fit-margin-top="0"
     fit-margin-left="0"
     fit-margin-right="0"
     fit-margin-bottom="0"
     showguides="false"
     inkscape:guide-bbox="true"
     inkscape:snap-object-midpoints="true"
     inkscape:snap-page="true"
     inkscape:snap-bbox="true"
     inkscape:snap-bbox-midpoints="true"
     units="px"
     inkscape:zoom="3.6134865"
     inkscape:cx="307.32092"
     inkscape:cy="366.95862"
     inkscape:window-width="2560"
     inkscape:window-height="1373"
     inkscape:window-x="0"
     inkscape:window-y="30"
     inkscape:window-maximized="1"
     inkscape:current-layer="layer1"
     inkscape:showpageshadow="2"
     inkscape:deskcolor="#d1d1d1">
    <sodipodi:guide
       position="2.4403528,132.92759"
       orientation="1,0"
       id="guide5564"
       inkscape:locked="false" />
    <sodipodi:guide
       position="11.509375,129.73849"
       orientation="0,-1"
       id="guide13022"
       inkscape:locked="false" />
  </sodipodi:namedview>
  <defs
     id="defs2" />
  <g
     inkscape:label="Layer 1"
     inkscape:groupmode="layer"
     id="layer1"
     transform="translate(-39.815325,-139.32936)">
    <g
       id="g1050"
       transform="matrix(2.259152,0,0,2.259152,25.130837,95.275891)">
      <g
         id="g1034">
        <path
           d="M 90.125,19.5 H 9.875 C 8.019,19.5 6.5,21.019 6.5,22.875 v 54.25 c 0,1.856 1.519,3.375 3.375,3.375 h 80.25 c 1.856,0 3.375,-1.519 3.375,-3.375 V 22.875 C 93.5,21.019 91.981,19.5 90.125,19.5 Z M 28.78,33.517 15.897,40.243 v -2.859 c 0,-0.216 0.054,-0.417 0.162,-0.601 0.108,-0.184 0.287,-0.335 0.536,-0.455 l 5.897,-3.038 c 0.509,-0.249 1.066,-0.444 1.673,-0.585 C 23.558,32.564 23,32.37 22.492,32.12 l -5.897,-3.021 c -0.249,-0.13 -0.428,-0.285 -0.536,-0.463 -0.108,-0.178 -0.162,-0.376 -0.162,-0.593 v -2.859 l 12.883,6.709 z"
           id="path1032" />
      </g>
    </g>
    <g
       aria-label="2ami"
       id="text1820"
       style="font-size:69.6037px;line-height:1.25;stroke-width:3.72876">
      <path
         d="m 60.71047,246.0806 q 0,-1.25749 0.849655,-2.10714 1.937212,-2.03917 4.588134,-4.82604 2.650923,-2.82085 5.675693,-6.11751 2.31106,-2.51498 3.46659,-3.77247 1.189516,-1.29147 1.801268,-1.9712 0.611751,-0.71371 1.257488,-1.49539 1.801268,-2.17511 2.85484,-3.70449 1.087557,-1.52938 1.767281,-3.02477 1.189516,-2.65092 1.189516,-5.30185 0,-4.21428 -2.480991,-6.59332 -2.514977,-2.41301 -6.899195,-2.41301 -6.083526,0 -13.662444,4.52016 v -6.93318 q 3.46659,-1.66533 6.899194,-2.51498 3.364632,-0.84965 6.661292,-0.84965 3.534563,0 6.627305,0.95161 3.092743,0.95161 5.403803,2.99078 2.039171,1.80127 3.262673,4.41821 1.223503,2.58295 1.223503,5.84562 0,3.33064 -1.495392,6.69528 -0.747696,1.69931 -1.937212,3.33064 -1.155531,1.59735 -2.990784,3.80645 -0.9856,1.15553 -2.345047,2.68491 -1.359447,1.52938 -3.160715,3.46659 -1.291475,1.39344 -2.413019,2.51498 -1.087557,1.12154 -2.31106,2.34505 -1.223502,1.18951 -2.820853,2.82085 -1.563364,1.59735 -3.840438,4.01037 h 23.654382 v 5.77765 H 60.71047 Z"
         style="font-family:'Hack Nerd Font Mono';-inkscape-font-specification:'Hack Nerd Font Mono';fill:#ffffff"
         id="path296" />
      <path
         d="m 114.7485,251.62035 c -3.67051,0 -6.70661,-1.05357 -9.1083,-3.16072 -2.37903,-2.1298 -3.56855,-5.17723 -3.56855,-9.14228 0,-3.28533 0.79301,-5.84562 2.37903,-7.68087 1.58603,-1.85791 3.65919,-3.16072 6.21948,-3.90842 2.56029,-0.74769 5.29051,-1.12154 8.19067,-1.12154 h 8.39458 v -0.9856 c 0,-3.24001 -0.827,-5.49443 -2.48099,-6.76325 -1.63133,-1.26882 -3.93106,-1.90323 -6.89919,-1.90323 -2.31106,0 -4.57681,0.31721 -6.79724,0.95162 -2.22043,0.63441 -4.29359,1.51805 -6.21947,2.65092 v -6.25346 c 2.08449,-0.77035 4.19163,-1.40476 6.32143,-1.90322 2.1298,-0.49847 4.30492,-0.7477 6.52535,-0.7477 2.26574,0 4.46351,0.3172 6.59331,0.95161 2.15246,0.61175 4.01037,1.63134 5.57374,3.05876 1.56336,1.40476 2.6056,3.29666 3.12673,5.67569 0.36252,1.67665 0.54378,4.20296 0.54378,7.57892 v 7.78284 c 0,2.1298 0.11329,4.48617 0.33986,7.06912 0.24923,2.58295 0.80434,4.87136 1.66532,6.86521 h -6.28744 c -0.38518,-0.88364 -0.69106,-1.82392 -0.91763,-2.82085 -0.22657,-1.01959 -0.40783,-2.00519 -0.54378,-2.9568 -1.33679,2.2884 -3.1947,3.98771 -5.57373,5.09793 -2.35638,1.11021 -4.8487,1.66532 -7.47696,1.66532 z"
         style="font-family:'Hack Nerd Font Mono';-inkscape-font-specification:'Hack Nerd Font Mono';fill:#ffffff"
         id="path298"
         sodipodi:nodetypes="scscsscscssccsscccssccccccs" />
      <path
         d="m 143.05899,212.57023 h 5.13191 l 0.54378,3.26267 q 2.31106,-4.1803 6.83122,-4.1803 4.86002,0 6.76325,4.79205 2.31106,-4.79205 7.27304,-4.79205 4.62212,0 6.45738,3.46659 1.86924,3.56855 1.86924,13.45853 v 22.05703 h -5.70968 v -21.78514 q 0,-4.28226 -0.2379,-6.62731 -0.20392,-2.34504 -0.67973,-3.46659 -0.84965,-1.86924 -3.36463,-1.86924 -2.58295,0 -3.56855,2.03917 -0.57776,1.18952 -0.81567,3.46659 -0.2379,2.27708 -0.2379,6.45738 v 21.78514 h -5.70968 v -21.78514 q 0,-4.11233 -0.2379,-6.52535 -0.23791,-2.41302 -0.7477,-3.53456 -0.91762,-1.90323 -3.4326,-1.90323 -2.51498,0 -3.43261,2.00519 -0.54378,1.15553 -0.78168,3.53456 -0.2379,2.34505 -0.2379,6.42339 v 21.78514 h -5.67569 z"
         style="font-family:'Hack Nerd Font Mono';-inkscape-font-specification:'Hack Nerd Font Mono';fill:#ffffff"
         id="path300" />
      <path
         d="m 199.03423,205.67103 q -1.01959,0 -1.01959,-1.01958 v -5.87961 q 0,-1.01959 1.01959,-1.01959 h 4.89401 q 1.01958,0 1.01958,1.01959 v 5.87961 q 0,1.01958 -1.01958,1.01958 z m 11.41935,45.23561 q -5.60772,0 -8.70046,-3.60254 -3.05876,-3.63652 -3.05876,-10.19585 v -19.64401 h -8.32661 v -4.89401 h 14.58007 v 24.53802 q 0,4.14631 1.56337,6.32143 1.56336,2.17512 4.55414,2.17512 h 7.30703 v 5.30184 z"
         style="font-family:'Hack Nerd Font Mono';-inkscape-font-specification:'Hack Nerd Font Mono';fill:#ffffff"
         id="path302" />
    </g>
    <g
       id="g1030"
       transform="matrix(1.0482904,0,0,1.0482904,91.444489,107.14214)"
       style="fill:#ffff00">
      <g
         id="g1014"
         style="fill:#ffff00"
         transform="matrix(0.90277647,0,0,0.90277647,-21.259726,66.001413)">
        <path
           fill="#000000"
           d="m 52.41,67.562 v 3.694 c 0,1.331 -1.079,2.41 -2.41,2.41 -1.331,0 -2.409,-1.079 -2.409,-2.41 v -3.694 c -1.438,-0.833 -2.408,-2.386 -2.408,-4.167 0,-2.661 2.156,-4.817 4.817,-4.817 2.661,0 4.818,2.156 4.818,4.817 0,1.782 -0.97,3.334 -2.408,4.167 z"
           id="path1012"
           style="fill:#000000"
           sodipodi:nodetypes="cssscsssc" />
      </g>
    </g>
    <path
       id="rect854"
       style="fill:#ffffff;fill-opacity:0.993098;stroke-width:15.875;stroke-linecap:round"
       d="m 61.044576,152.17037 v 6.45903 c 0,0.49024 0.12188,0.93733 0.365869,1.33946 0.243988,0.40213 0.648766,0.75224 1.211296,1.04593 l 13.322185,6.82491 c 1.147648,0.56478 2.408309,1.00334 3.779612,1.32188 -1.371303,0.31854 -2.629704,0.75884 -3.779612,1.32136 l -13.322185,6.86315 c -0.56253,0.2711 -0.967308,0.61268 -1.211296,1.02836 -0.243989,0.41569 -0.365869,0.86957 -0.365869,1.35754 v 6.45904 L 90.14926,170.99557 v -3.6685 z" />
  </g>
  <metadata
     id="metadata883">
    <rdf:RDF>
      <cc:License
         rdf:about="http://creativecommons.org/licenses/by-nc-nd/4.0/">
        <cc:permits
           rdf:resource="http://creativecommons.org/ns#Reproduction" />
        <cc:permits
           rdf:resource="http://creativecommons.org/ns#Distribution" />
        <cc:requires
           rdf:resource="http://creativecommons.org/ns#Notice" />
        <cc:requires
           rdf:resource="http://creativecommons.org/ns#Attribution" />
        <cc:prohibits
           rdf:resource="http://creativecommons.org/ns#CommercialUse" />
      </cc:License>
      <cc:Work
         rdf:about="">
        <cc:license
           rdf:resource="http://creativecommons.org/licenses/by-nc-nd/4.0/" />
        <dc:title>2ami logo</dc:title>
        <dc:creator>
          <cc:Agent>
            <dc:title>Edoardo Tenani</dc:title>
          </cc:Agent>
        </dc:creator>
        <dc:rights>
          <cc:Agent>
            <dc:title>Some Rights Reserved</dc:title>
          </cc:Agent>
        </dc:rights>
        <dc:description>A black terminal like command prompt with 2ami text.</dc:description>
      </cc:Work>
    </rdf:RDF>
  </metadata>
</svg>
