<svg xmlns="http://www.w3.org/2000/svg" xmlns:xlink="http://www.w3.org/1999/xlink" width="1200" height="1200" viewBox="0 0 1200 1200"><g><circle stroke="none" fill="#FFFFFF" r="48%" cx="50%" cy="50%"></circle><g transform="translate(600 600) scale(0.69 0.69) rotate(0) translate(-600 -600)" style="fill:#349aff"><svg fill="#349aff" xmlns="http://www.w3.org/2000/svg" xmlns:xlink="http://www.w3.org/1999/xlink" version="1.1" x="0px" y="0px" viewBox="100 100 100 100" enable-background="new 100 100 100 100" xml:space="preserve"><g display="none"><polygon display="inline" points="150.938,140.299 151.107,139.853 134.125,162.539 134.288,162.539 141.116,162.539    133.795,181.006 134.135,180.56 133.958,181.006 151.172,158.451 151.008,158.451 144.181,158.451 151.271,139.853  "></polygon><path display="inline" d="M181.799,163.861c-5.673,0-10.271-1.84-10.271-4.109v4.109c0,0.123,0.021,0.246,0.047,0.367   c3.363,0.602,6.045,1.912,7.331,3.572c0.919,0.109,1.888,0.168,2.894,0.168c5.672,0,10.271-1.84,10.271-4.107v-4.109   C192.07,162.021,187.471,163.861,181.799,163.861z"></path><path display="inline" d="M181.799,182.348c-0.704,0-1.391-0.027-2.055-0.082v4.109c0.664,0.053,1.351,0.082,2.055,0.082   c5.672,0,10.271-1.84,10.271-4.109v-4.107C192.07,180.51,187.471,182.348,181.799,182.348z"></path><path display="inline" d="M181.799,176.186c-0.704,0-1.391-0.027-2.055-0.082v4.109c0.664,0.053,1.351,0.082,2.055,0.082   c5.672,0,10.271-1.84,10.271-4.109v-4.107C192.07,174.346,187.471,176.186,181.799,176.186z"></path><path display="inline" d="M181.799,170.023c-0.706,0-1.396-0.029-2.063-0.084c0,0.029,0.008,0.057,0.008,0.084v4.025   c0.664,0.055,1.351,0.082,2.055,0.082c5.672,0,10.271-1.838,10.271-4.107v-4.109C192.07,168.184,187.471,170.023,181.799,170.023z"></path><path display="inline" d="M167.42,188.512c-5.673,0-10.271-1.84-10.271-4.109v3.897c-0.123,0.002-0.244,0.011-0.368,0.011   l-24.414,0.17h-0.084c-7.688,0-14.53-4.057-18.079-10.645c-3.21-6.084-2.45-13.518,1.943-18.84l20.782-25.173   c0.169-0.169,0.253-0.423,0.338-0.676h13.938c0.084,0.168,0.169,0.422,0.338,0.591l20.026,23.632   c-0.022,0.108-0.042,0.218-0.042,0.329c0,2.268,4.599,4.107,10.271,4.107c5.672,0,10.271-1.84,10.271-4.107   c0-2.27-4.6-4.109-10.271-4.109c-2.705,0-5.159,0.422-6.993,1.105l-19.123-22.563l6.843-12.249c0.76-1.352,0.76-3.041-0.085-4.393   c-0.845-1.437-2.28-2.196-3.97-2.196h-3.718c0.423-1.268,0.253-2.703-0.507-3.887c-0.845-1.267-2.281-2.027-3.801-2.027H138.28   c-1.521,0-2.957,0.761-3.802,2.027c-0.76,1.184-0.929,2.619-0.507,3.887h-4.308c-1.69,0-3.126,0.845-3.971,2.28   c-0.76,1.352-0.845,3.042,0,4.394l7.012,12.333l-19.853,23.991c-5.491,6.674-6.505,15.883-2.45,23.486   c4.224,7.939,12.587,12.84,21.795,12.84c0.084,0,0.084,0,0.169,0l24.414-0.168c1.676-0.016,3.312-0.209,4.902-0.532   c1.639,0.442,3.612,0.7,5.737,0.7c5.672,0,10.271-1.84,10.271-4.107v-4.109C177.69,186.672,173.092,188.512,167.42,188.512z    M129.41,117.856c0,0-0.084-0.085,0-0.169c0-0.085,0.085-0.169,0.338-0.169h7.435c0.676,0,1.352-0.338,1.774-0.93   c0.422-0.591,0.507-1.352,0.169-1.942l-1.098-2.619c0,0,0-0.085,0-0.169c0-0.085,0.084-0.169,0.253-0.169h12.249   c0.168,0,0.254,0.084,0.254,0.169c0.084,0.084,0,0.169,0,0.169l-1.014,2.534c-0.253,0.676-0.169,1.437,0.169,1.943   s1.013,0.929,1.773,0.929h6.844c0.168,0,0.254,0.085,0.338,0.169c0.084,0.085,0,0.169,0,0.169l-6.252,11.151h-4.983l2.112-4.309   c0.507-1.014,0.085-2.28-0.929-2.872c-1.014-0.507-2.281-0.084-2.873,0.93l-1.774,3.548l-1.774-3.548   c-0.507-1.014-1.774-1.437-2.872-0.93c-1.014,0.507-1.436,1.774-0.929,2.872l2.112,4.309h-5.068L129.41,117.856z"></path><path display="inline" d="M167.42,176.186c-5.673,0-10.271-1.84-10.271-4.107v4.107c0,2.27,4.599,4.109,10.271,4.109   c5.672,0,10.271-1.84,10.271-4.109v-4.107C177.69,174.346,173.092,176.186,167.42,176.186z"></path><path display="inline" d="M167.42,182.348c-5.673,0-10.271-1.838-10.271-4.107v4.107c0,2.27,4.599,4.109,10.271,4.109   c5.672,0,10.271-1.84,10.271-4.109v-4.107C177.69,180.51,173.092,182.348,167.42,182.348z"></path><ellipse display="inline" cx="167.42" cy="170.022" rx="10.271" ry="4.108"></ellipse></g><g><path d="M186.569,128.353c-0.054-2.422-0.089-4.702-0.089-6.946c0-1.233-1.001-2.234-2.235-2.234   c-13.633,0-24.021-3.925-32.684-12.355c-0.868-0.846-2.253-0.846-3.12,0c-8.672,8.431-19.051,12.355-32.684,12.355   c-1.234,0-2.235,1.001-2.235,2.234c0,2.218,0,4.471-0.089,6.92c-0.429,22.214-0.983,52.601,35.831,65.367   c0.475,0.165,0.992,0.165,1.466,0C187.544,180.928,186.989,150.541,186.569,128.353z M149.996,190.59   c-34.247-12.264-33.664-40.338-33.229-62.94c0-1.713,0.065-3.36,0.083-4.971c13.468-0.407,24.066-4.434,33.155-12.561   c9.053,8.127,19.688,12.154,33.155,12.561c0,1.611,0.046,3.258,0.083,4.971C183.661,150.251,184.244,178.326,149.996,190.59z"></path><g><g><path d="M132.572,141.468h-8.735c-0.548,0-0.994,0.446-0.994,0.994v1.027c0,0.549,0.446,0.994,0.994,0.994h8.735     c0.548,0,0.995-0.445,0.995-0.994v-1.027C133.566,141.915,133.12,141.468,132.572,141.468z"></path><path d="M147.131,141.554h-8.735c-0.548,0-0.994,0.445-0.994,0.994v1.027c0,0.548,0.446,0.994,0.994,0.994h8.735     c0.548,0,0.995-0.446,0.995-0.994v-1.027C148.125,142,147.679,141.554,147.131,141.554z"></path><path d="M161.689,141.554h-8.734c-0.549,0-0.994,0.445-0.994,0.994v1.027c0,0.548,0.445,0.994,0.994,0.994h8.734     c0.549,0,0.994-0.446,0.994-0.994v-1.027C162.684,142,162.238,141.554,161.689,141.554z"></path><path d="M176.163,141.554h-8.735c-0.548,0-0.994,0.445-0.994,0.994v1.027c0,0.548,0.446,0.994,0.994,0.994h8.735     c0.549,0,0.994-0.446,0.994-0.994v-1.027C177.157,142,176.712,141.554,176.163,141.554z"></path><path d="M124.15,136.396l0.356,0.538c0.204,0.305,0.546,0.419,0.901,0.239l1.802-1.082v2.089c0,0.378,0.274,0.652,0.652,0.652     h0.599c0.378,0,0.652-0.274,0.652-0.652v-2.089l1.793,1.076c0.125,0.083,0.259,0.126,0.39,0.126c0.242,0,0.444-0.146,0.535-0.382     l0.327-0.491c0.125-0.188,0.159-0.391,0.097-0.572c-0.056-0.165-0.184-0.29-0.36-0.355l-1.874-1.08l1.879-1.085     c0.263-0.132,0.426-0.319,0.46-0.528c0.024-0.15-0.021-0.295-0.127-0.411l-0.332-0.498c-0.203-0.305-0.545-0.418-0.9-0.239     l-1.803,1.082v-2.089c0-0.378-0.274-0.651-0.651-0.651h-0.6c-0.377,0-0.651,0.273-0.651,0.651v2.089l-1.794-1.076     c-0.124-0.083-0.259-0.127-0.389-0.127c-0.242,0-0.444,0.146-0.535,0.383l-0.328,0.491c-0.125,0.188-0.159,0.391-0.096,0.573     c0.056,0.164,0.184,0.289,0.36,0.354l1.867,1.077l-1.983,1.102C124.04,135.75,124.016,136.127,124.15,136.396z"></path><path d="M138.901,133.332l1.874,1.081l-1.879,1.084c-0.297,0.148-0.405,0.633-0.271,0.899l0.356,0.538     c0.138,0.208,0.341,0.322,0.571,0.322c0.107,0,0.216-0.026,0.329-0.083l1.803-1.082v2.089c0,0.378,0.274,0.652,0.651,0.652h0.6     c0.377,0,0.651-0.274,0.651-0.652v-2.089l1.794,1.076c0.124,0.083,0.259,0.126,0.389,0.126c0.242,0,0.444-0.146,0.535-0.382     l0.328-0.491c0.125-0.188,0.159-0.391,0.097-0.572c-0.057-0.164-0.184-0.29-0.36-0.355l-1.874-1.08l1.903-1.1     c0.357-0.238,0.382-0.616,0.248-0.885l-0.357-0.538c-0.203-0.305-0.545-0.419-0.9-0.239l-1.803,1.082v-2.089     c0-0.378-0.274-0.651-0.651-0.651h-0.6c-0.377,0-0.651,0.273-0.651,0.651v2.089l-1.794-1.076     c-0.124-0.083-0.259-0.127-0.389-0.127c-0.242,0-0.444,0.146-0.535,0.383l-0.328,0.491c-0.125,0.188-0.159,0.391-0.096,0.573     C138.598,133.141,138.725,133.266,138.901,133.332z"></path><path d="M153.546,133.16l1.873,1.081l-1.903,1.099c-0.357,0.238-0.381,0.616-0.247,0.886l0.356,0.537     c0.203,0.306,0.547,0.419,0.9,0.239l1.803-1.081v2.089c0,0.377,0.273,0.651,0.651,0.651h0.6c0.378,0,0.651-0.274,0.651-0.651     v-2.089l1.794,1.075c0.124,0.083,0.259,0.127,0.39,0.127c0.241,0,0.443-0.146,0.535-0.382l0.327-0.492     c0.125-0.187,0.159-0.39,0.097-0.572c-0.057-0.166-0.187-0.292-0.365-0.356l-1.765-0.918l1.886-1.089     c0.357-0.238,0.382-0.616,0.247-0.885l-0.356-0.538c-0.203-0.305-0.545-0.419-0.9-0.239l-1.803,1.082v-2.089l-0.007-0.054     c-0.122-0.489-0.388-0.77-0.73-0.77h-0.6c-0.378,0-0.651,0.274-0.651,0.651v2.089l-1.794-1.075     c-0.124-0.083-0.259-0.127-0.39-0.127c-0.241,0-0.443,0.146-0.535,0.383l-0.326,0.491c-0.125,0.188-0.16,0.391-0.098,0.572     C153.242,132.969,153.369,133.095,153.546,133.16z"></path><path d="M168.099,136.934c0.138,0.208,0.341,0.322,0.571,0.322c0.107,0,0.216-0.026,0.329-0.083l1.803-1.082v2.089     c0,0.378,0.273,0.652,0.651,0.652h0.6c0.377,0,0.651-0.274,0.651-0.652v-2.089l1.794,1.076c0.124,0.083,0.259,0.126,0.389,0.126     c0.242,0,0.444-0.146,0.535-0.382l0.328-0.491c0.124-0.188,0.158-0.391,0.096-0.573c-0.056-0.162-0.182-0.287-0.355-0.353     l-1.72-1.075l1.917-1.106c0.357-0.238,0.382-0.616,0.247-0.885l-0.356-0.538c-0.203-0.305-0.546-0.419-0.9-0.239l-1.802,1.082     v-2.089c0-0.378-0.274-0.651-0.652-0.651h-0.6c-0.377,0-0.651,0.273-0.651,0.651v2.089l-1.794-1.076     c-0.124-0.083-0.259-0.127-0.389-0.127c-0.242,0-0.444,0.146-0.535,0.383l-0.328,0.491c-0.125,0.188-0.159,0.391-0.097,0.573     c0.057,0.164,0.185,0.289,0.36,0.354l1.873,1.081l-1.861,1.073c-0.274,0.065-0.477,0.234-0.544,0.455     c-0.053,0.176-0.012,0.362,0.107,0.495L168.099,136.934z"></path></g><path d="M158.242,158.97h-1.547v-1.555c0-3.692-3.004-6.695-6.695-6.695c-3.692,0-6.696,3.003-6.696,6.695v1.547h-1.547    c-0.662,0-1.201,0.539-1.201,1.201v12.814c0,0.662,0.539,1.201,1.201,1.201h16.485c0.656,0,1.195-0.533,1.201-1.193v-12.814    C159.443,159.509,158.904,158.97,158.242,158.97z M150,153.121c2.367,0,4.295,1.927,4.295,4.294v1.547h-8.589v-1.547    C145.706,155.048,147.632,153.121,150,153.121z M157.042,161.371v10.413h-14.084v-10.413H157.042z"></path></g></g></svg></g></g></svg>