<?xml version="1.0" encoding="UTF-8" standalone="no"?>
<!-- Created with Inkscape (http://www.inkscape.org/) -->

<svg
   width="1889.7632"
   height="520.85016"
   viewBox="0 0 499.99985 137.80827"
   version="1.1"
   id="svg5"
   inkscape:version="1.1 (ce6663b3b7, 2021-05-25)"
   sodipodi:docname="logo.svg"
   inkscape:export-filename="/home/endorama/code/github.com/endorama/2ami/logo.png"
   inkscape:export-xdpi="433.76001"
   inkscape:export-ydpi="433.76001"
   xmlns:inkscape="http://www.inkscape.org/namespaces/inkscape"
   xmlns:sodipodi="http://sodipodi.sourceforge.net/DTD/sodipodi-0.dtd"
   xmlns="http://www.w3.org/2000/svg"
   xmlns:svg="http://www.w3.org/2000/svg"
   xmlns:rdf="http://www.w3.org/1999/02/22-rdf-syntax-ns#">
  <sodipodi:namedview
     id="namedview7"
     pagecolor="#ffffff"
     bordercolor="#666666"
     borderopacity="1.0"
     inkscape:pageshadow="2"
     inkscape:pageopacity="0.0"
     inkscape:pagecheckerboard="0"
     inkscape:document-units="px"
     showgrid="false"
     fit-margin-top="0"
     fit-margin-left="0"
     fit-margin-right="0"
     fit-margin-bottom="0"
     showguides="false"
     inkscape:guide-bbox="true"
     inkscape:snap-object-midpoints="true"
     inkscape:snap-page="true"
     inkscape:snap-bbox="true"
     inkscape:snap-bbox-midpoints="true"
     units="px"
     inkscape:zoom="0.25988917"
     inkscape:cx="1431.3794"
     inkscape:cy="469.43088"
     inkscape:window-width="1920"
     inkscape:window-height="1133"
     inkscape:window-x="0"
     inkscape:window-y="30"
     inkscape:window-maximized="1"
     inkscape:current-layer="layer1">
    <sodipodi:guide
       position="2.4403528,132.92758"
       orientation="1,0"
       id="guide5564" />
    <sodipodi:guide
       position="11.509375,129.73848"
       orientation="0,-1"
       id="guide13022" />
  </sodipodi:namedview>
  <defs
     id="defs2" />
  <g
     inkscape:label="Layer 1"
     inkscape:groupmode="layer"
     id="layer1"
     transform="translate(-39.815325,-139.32935)">
    <g
       id="g1050"
       transform="matrix(2.259152,0,0,2.259152,25.130837,95.275891)">
      <g
         id="g1034">
        <path
           d="M 90.125,19.5 H 9.875 C 8.019,19.5 6.5,21.019 6.5,22.875 v 54.25 c 0,1.856 1.519,3.375 3.375,3.375 h 80.25 c 1.856,0 3.375,-1.519 3.375,-3.375 V 22.875 C 93.5,21.019 91.981,19.5 90.125,19.5 Z M 28.78,33.517 15.897,40.243 v -2.859 c 0,-0.216 0.054,-0.417 0.162,-0.601 0.108,-0.184 0.287,-0.335 0.536,-0.455 l 5.897,-3.038 c 0.509,-0.249 1.066,-0.444 1.673,-0.585 C 23.558,32.564 23,32.37 22.492,32.12 l -5.897,-3.021 c -0.249,-0.13 -0.428,-0.285 -0.536,-0.463 -0.108,-0.178 -0.162,-0.376 -0.162,-0.593 v -2.859 l 12.883,6.709 z"
           id="path1032" />
      </g>
    </g>
    <text
       xml:space="preserve"
       style="font-style:normal;font-weight:normal;font-size:69.6037px;line-height:1.25;font-family:sans-serif;fill:#000000;fill-opacity:1;stroke:none;stroke-width:3.72876"
       x="55.544571"
       y="250.63475"
       id="text1820"><tspan
         sodipodi:role="line"
         id="tspan1818"
         style="font-style:normal;font-variant:normal;font-weight:normal;font-stretch:normal;font-size:69.6037px;font-family:'Hack Nerd Font Mono';-inkscape-font-specification:'Hack Nerd Font Mono';fill:#ffffff;stroke-width:3.72876"
         x="55.544571"
         y="250.63475">2ami</tspan></text>
    <g
       id="g1030"
       transform="matrix(1.0482904,0,0,1.0482904,91.444489,107.14214)"
       style="fill:#ffffff">
      <g
         id="g1014"
         style="fill:#ffffff"
         transform="matrix(0.90277647,0,0,0.90277647,-21.259726,66.001413)">
        <path
           fill="#000000"
           d="m 50.990837,53.886303 -10.129615,8.656108 0.04173,10.118336 8.631766,2.803479 8.532195,-3.773454 3.044138,-5.227206 1.618632,-8.957372 z M 52.41,67.562 v 3.694 c 0,1.331 -1.079,2.41 -2.41,2.41 -1.331,0 -2.409,-1.079 -2.409,-2.41 v -3.694 c -1.438,-0.833 -2.408,-2.386 -2.408,-4.167 0,-2.661 2.156,-4.817 4.817,-4.817 2.661,0 4.818,2.156 4.818,4.817 0,1.782 -0.97,3.334 -2.408,4.167 z"
           id="path1012"
           style="fill:#ffffff"
           sodipodi:nodetypes="cccccccccssscsssc" />
      </g>
    </g>
    <text
       xml:space="preserve"
       style="font-style:normal;font-weight:normal;font-size:37.0653px;line-height:1.25;font-family:sans-serif;fill:#000000;fill-opacity:1;stroke:none;stroke-width:0.926635"
       x="252.21521"
       y="175.39418"
       id="text9462"><tspan
         sodipodi:role="line"
         id="tspan9460"
         style="font-style:normal;font-variant:normal;font-weight:normal;font-stretch:normal;font-family:'Hack Nerd Font Mono';-inkscape-font-specification:'Hack Nerd Font Mono';stroke-width:0.926635"
         x="252.21521"
         y="175.39418">Secure</tspan><tspan
         sodipodi:role="line"
         style="font-style:normal;font-variant:normal;font-weight:normal;font-stretch:normal;font-family:'Hack Nerd Font Mono';-inkscape-font-specification:'Hack Nerd Font Mono';stroke-width:0.926635"
         x="252.21521"
         y="221.7258"
         id="tspan9464">Two Factor</tspan><tspan
         sodipodi:role="line"
         style="font-style:normal;font-variant:normal;font-weight:normal;font-stretch:normal;font-family:'Hack Nerd Font Mono';-inkscape-font-specification:'Hack Nerd Font Mono';stroke-width:0.926635"
         x="252.21521"
         y="268.05743"
         id="tspan9466">Authenticator</tspan></text>
  </g>
  <metadata
     id="metadata883">
    <rdf:RDF />
  </metadata>
</svg>
