<?xml version="1.0" encoding="UTF-8" standalone="no"?>
<svg
   xmlns:dc="http://purl.org/dc/elements/1.1/"
   xmlns:cc="http://creativecommons.org/ns#"
   xmlns:rdf="http://www.w3.org/1999/02/22-rdf-syntax-ns#"
   xmlns:svg="http://www.w3.org/2000/svg"
   xmlns="http://www.w3.org/2000/svg"
   xmlns:sodipodi="http://sodipodi.sourceforge.net/DTD/sodipodi-0.dtd"
   xmlns:inkscape="http://www.inkscape.org/namespaces/inkscape"
   width="3046.0466"
   height="1151.611"
   viewBox="0 0 3046.0466 1151.611"
   id="svg2"
   version="1.1"
   inkscape:version="0.91 r13725"
   sodipodi:docname="logo.svg">
  <metadata
     id="metadata62">
    <rdf:RDF>
      <cc:Work
         rdf:about="">
        <dc:format>image/svg+xml</dc:format>
        <dc:type
           rdf:resource="http://purl.org/dc/dcmitype/StillImage" />
        <dc:title></dc:title>
      </cc:Work>
    </rdf:RDF>
  </metadata>
  <defs
     id="defs60" />
  <sodipodi:namedview
     pagecolor="#ffffff"
     bordercolor="#666666"
     borderopacity="1"
     objecttolerance="10"
     gridtolerance="10"
     guidetolerance="10"
     inkscape:pageopacity="0"
     inkscape:pageshadow="2"
     inkscape:window-width="1920"
     inkscape:window-height="1056"
     id="namedview58"
     showgrid="false"
     showguides="false"
     inkscape:snap-bbox="true"
     inkscape:snap-bbox-edge-midpoints="true"
     inkscape:snap-bbox-midpoints="true"
     inkscape:guide-bbox="true"
     fit-margin-top="50"
     fit-margin-left="50"
     fit-margin-right="50"
     fit-margin-bottom="50"
     inkscape:zoom="0.19666667"
     inkscape:cx="936.99557"
     inkscape:cy="365.22017"
     inkscape:window-x="0"
     inkscape:window-y="24"
     inkscape:window-maximized="1"
     inkscape:current-layer="svg2">
    <sodipodi:guide
       position="489.95466,575.80564"
       orientation="0,1"
       id="guide4337" />
    <sodipodi:guide
       position="489.95238,567.17314"
       orientation="1,0"
       id="guide4339" />
    <sodipodi:guide
       position="489.95466,1101.611"
       orientation="0,1"
       id="guide4367" />
    <sodipodi:guide
       position="489.95466,50.000115"
       orientation="0,1"
       id="guide4369" />
  </sodipodi:namedview>
  <g
     style="display:none;fill:#349aff;fill-opacity:1"
     id="g12"
     display="none"
     transform="translate(-110.04162,-24.202)">
    <polygon
       style="display:inline;fill:#349aff;fill-opacity:1"
       id="polygon14"
       points="144.181,158.451 151.271,139.853 150.938,140.299 151.107,139.853 134.125,162.539 134.288,162.539 141.116,162.539 133.795,181.006 134.135,180.56 133.958,181.006 151.172,158.451 151.008,158.451 "
       display="inline" />
    <path
       inkscape:connector-curvature="0"
       style="display:inline;fill:#349aff;fill-opacity:1"
       id="path16"
       d="m 181.799,163.861 c -5.673,0 -10.271,-1.84 -10.271,-4.109 l 0,4.109 c 0,0.123 0.021,0.246 0.047,0.367 3.363,0.602 6.045,1.912 7.331,3.572 0.919,0.109 1.888,0.168 2.894,0.168 5.672,0 10.271,-1.84 10.271,-4.107 l 0,-4.109 c -0.001,2.269 -4.6,4.109 -10.272,4.109 z"
       display="inline" />
    <path
       inkscape:connector-curvature="0"
       style="display:inline;fill:#349aff;fill-opacity:1"
       id="path18"
       d="m 181.799,182.348 c -0.704,0 -1.391,-0.027 -2.055,-0.082 l 0,4.109 c 0.664,0.053 1.351,0.082 2.055,0.082 5.672,0 10.271,-1.84 10.271,-4.109 l 0,-4.107 c 0,2.269 -4.599,4.107 -10.271,4.107 z"
       display="inline" />
    <path
       inkscape:connector-curvature="0"
       style="display:inline;fill:#349aff;fill-opacity:1"
       id="path20"
       d="m 181.799,176.186 c -0.704,0 -1.391,-0.027 -2.055,-0.082 l 0,4.109 c 0.664,0.053 1.351,0.082 2.055,0.082 5.672,0 10.271,-1.84 10.271,-4.109 l 0,-4.107 c 0,2.267 -4.599,4.107 -10.271,4.107 z"
       display="inline" />
    <path
       inkscape:connector-curvature="0"
       style="display:inline;fill:#349aff;fill-opacity:1"
       id="path22"
       d="m 181.799,170.023 c -0.706,0 -1.396,-0.029 -2.063,-0.084 0,0.029 0.008,0.057 0.008,0.084 l 0,4.025 c 0.664,0.055 1.351,0.082 2.055,0.082 5.672,0 10.271,-1.838 10.271,-4.107 l 0,-4.109 c 0,2.27 -4.599,4.109 -10.271,4.109 z"
       display="inline" />
    <path
       inkscape:connector-curvature="0"
       style="display:inline;fill:#349aff;fill-opacity:1"
       id="path24"
       d="m 167.42,188.512 c -5.673,0 -10.271,-1.84 -10.271,-4.109 l 0,3.897 c -0.123,0.002 -0.244,0.011 -0.368,0.011 l -24.414,0.17 -0.084,0 c -7.688,0 -14.53,-4.057 -18.079,-10.645 -3.21,-6.084 -2.45,-13.518 1.943,-18.84 l 20.782,-25.173 c 0.169,-0.169 0.253,-0.423 0.338,-0.676 l 13.938,0 c 0.084,0.168 0.169,0.422 0.338,0.591 l 20.026,23.632 c -0.022,0.108 -0.042,0.218 -0.042,0.329 0,2.268 4.599,4.107 10.271,4.107 5.672,0 10.271,-1.84 10.271,-4.107 0,-2.27 -4.6,-4.109 -10.271,-4.109 -2.705,0 -5.159,0.422 -6.993,1.105 l -19.123,-22.563 6.843,-12.249 c 0.76,-1.352 0.76,-3.041 -0.085,-4.393 -0.845,-1.437 -2.28,-2.196 -3.97,-2.196 l -3.718,0 c 0.423,-1.268 0.253,-2.703 -0.507,-3.887 -0.845,-1.267 -2.281,-2.027 -3.801,-2.027 l -12.164,0 c -1.521,0 -2.957,0.761 -3.802,2.027 -0.76,1.184 -0.929,2.619 -0.507,3.887 l -4.308,0 c -1.69,0 -3.126,0.845 -3.971,2.28 -0.76,1.352 -0.845,3.042 0,4.394 l 7.012,12.333 -19.853,23.991 c -5.491,6.674 -6.505,15.883 -2.45,23.486 4.224,7.939 12.587,12.84 21.795,12.84 0.084,0 0.084,0 0.169,0 l 24.414,-0.168 c 1.676,-0.016 3.312,-0.209 4.902,-0.532 1.639,0.442 3.612,0.7 5.737,0.7 5.672,0 10.271,-1.84 10.271,-4.107 l 0,-4.109 c 0.001,2.27 -4.597,4.11 -10.269,4.11 z m -38.01,-70.656 c 0,0 -0.084,-0.085 0,-0.169 0,-0.085 0.085,-0.169 0.338,-0.169 l 7.435,0 c 0.676,0 1.352,-0.338 1.774,-0.93 0.422,-0.591 0.507,-1.352 0.169,-1.942 l -1.098,-2.619 c 0,0 0,-0.085 0,-0.169 0,-0.085 0.084,-0.169 0.253,-0.169 l 12.249,0 c 0.168,0 0.254,0.084 0.254,0.169 0.084,0.084 0,0.169 0,0.169 l -1.014,2.534 c -0.253,0.676 -0.169,1.437 0.169,1.943 0.338,0.506 1.013,0.929 1.773,0.929 l 6.844,0 c 0.168,0 0.254,0.085 0.338,0.169 0.084,0.085 0,0.169 0,0.169 l -6.252,11.151 -4.983,0 2.112,-4.309 c 0.507,-1.014 0.085,-2.28 -0.929,-2.872 -1.014,-0.507 -2.281,-0.084 -2.873,0.93 l -1.774,3.548 -1.774,-3.548 c -0.507,-1.014 -1.774,-1.437 -2.872,-0.93 -1.014,0.507 -1.436,1.774 -0.929,2.872 l 2.112,4.309 -5.068,0 -6.254,-11.066 z"
       display="inline" />
    <path
       inkscape:connector-curvature="0"
       style="display:inline;fill:#349aff;fill-opacity:1"
       id="path26"
       d="m 167.42,176.186 c -5.673,0 -10.271,-1.84 -10.271,-4.107 l 0,4.107 c 0,2.27 4.599,4.109 10.271,4.109 5.672,0 10.271,-1.84 10.271,-4.109 l 0,-4.107 c -0.001,2.267 -4.599,4.107 -10.271,4.107 z"
       display="inline" />
    <path
       inkscape:connector-curvature="0"
       style="display:inline;fill:#349aff;fill-opacity:1"
       id="path28"
       d="m 167.42,182.348 c -5.673,0 -10.271,-1.838 -10.271,-4.107 l 0,4.107 c 0,2.27 4.599,4.109 10.271,4.109 5.672,0 10.271,-1.84 10.271,-4.109 l 0,-4.107 c -0.001,2.269 -4.599,4.107 -10.271,4.107 z"
       display="inline" />
    <ellipse
       style="display:inline;fill:#349aff;fill-opacity:1"
       id="ellipse30"
       ry="4.1079998"
       rx="10.271"
       cy="170.022"
       cx="167.42"
       display="inline" />
  </g>
  <g
     style="fill:#349aff;fill-opacity:1"
     id="g32"
     transform="matrix(12,0,0,12,-1310.0415,-1224.202)">
    <path
       inkscape:connector-curvature="0"
       style="fill:#349aff;fill-opacity:1"
       id="path34"
       d="m 186.569,128.353 c -0.054,-2.422 -0.089,-4.702 -0.089,-6.946 0,-1.233 -1.001,-2.234 -2.235,-2.234 -13.633,0 -24.021,-3.925 -32.684,-12.355 -0.868,-0.846 -2.253,-0.846 -3.12,0 -8.672,8.431 -19.051,12.355 -32.684,12.355 -1.234,0 -2.235,1.001 -2.235,2.234 0,2.218 0,4.471 -0.089,6.92 -0.429,22.214 -0.983,52.601 35.831,65.367 0.475,0.165 0.992,0.165 1.466,0 36.814,-12.766 36.259,-43.153 35.839,-65.341 z m -36.573,62.237 c -34.247,-12.264 -33.664,-40.338 -33.229,-62.94 0,-1.713 0.065,-3.36 0.083,-4.971 13.468,-0.407 24.066,-4.434 33.155,-12.561 9.053,8.127 19.688,12.154 33.155,12.561 0,1.611 0.046,3.258 0.083,4.971 0.418,22.601 1.001,50.676 -33.247,62.94 z" />
    <g
       style="fill:#349aff;fill-opacity:1"
       id="g36">
      <g
         style="fill:#349aff;fill-opacity:1"
         id="g38">
        <path
           inkscape:connector-curvature="0"
           style="fill:#349aff;fill-opacity:1"
           id="path40"
           d="m 132.572,141.468 -8.735,0 c -0.548,0 -0.994,0.446 -0.994,0.994 l 0,1.027 c 0,0.549 0.446,0.994 0.994,0.994 l 8.735,0 c 0.548,0 0.995,-0.445 0.995,-0.994 l 0,-1.027 c -0.001,-0.547 -0.447,-0.994 -0.995,-0.994 z" />
        <path
           inkscape:connector-curvature="0"
           style="fill:#349aff;fill-opacity:1"
           id="path42"
           d="m 147.131,141.554 -8.735,0 c -0.548,0 -0.994,0.445 -0.994,0.994 l 0,1.027 c 0,0.548 0.446,0.994 0.994,0.994 l 8.735,0 c 0.548,0 0.995,-0.446 0.995,-0.994 l 0,-1.027 c -0.001,-0.548 -0.447,-0.994 -0.995,-0.994 z" />
        <path
           inkscape:connector-curvature="0"
           style="fill:#349aff;fill-opacity:1"
           id="path44"
           d="m 161.689,141.554 -8.734,0 c -0.549,0 -0.994,0.445 -0.994,0.994 l 0,1.027 c 0,0.548 0.445,0.994 0.994,0.994 l 8.734,0 c 0.549,0 0.994,-0.446 0.994,-0.994 l 0,-1.027 c 0.001,-0.548 -0.445,-0.994 -0.994,-0.994 z" />
        <path
           inkscape:connector-curvature="0"
           style="fill:#349aff;fill-opacity:1"
           id="path46"
           d="m 176.163,141.554 -8.735,0 c -0.548,0 -0.994,0.445 -0.994,0.994 l 0,1.027 c 0,0.548 0.446,0.994 0.994,0.994 l 8.735,0 c 0.549,0 0.994,-0.446 0.994,-0.994 l 0,-1.027 c 0,-0.548 -0.445,-0.994 -0.994,-0.994 z" />
        <path
           inkscape:connector-curvature="0"
           style="fill:#349aff;fill-opacity:1"
           id="path48"
           d="m 124.15,136.396 0.356,0.538 c 0.204,0.305 0.546,0.419 0.901,0.239 l 1.802,-1.082 0,2.089 c 0,0.378 0.274,0.652 0.652,0.652 l 0.599,0 c 0.378,0 0.652,-0.274 0.652,-0.652 l 0,-2.089 1.793,1.076 c 0.125,0.083 0.259,0.126 0.39,0.126 0.242,0 0.444,-0.146 0.535,-0.382 l 0.327,-0.491 c 0.125,-0.188 0.159,-0.391 0.097,-0.572 -0.056,-0.165 -0.184,-0.29 -0.36,-0.355 l -1.874,-1.08 1.879,-1.085 c 0.263,-0.132 0.426,-0.319 0.46,-0.528 0.024,-0.15 -0.021,-0.295 -0.127,-0.411 l -0.332,-0.498 c -0.203,-0.305 -0.545,-0.418 -0.9,-0.239 l -1.803,1.082 0,-2.089 c 0,-0.378 -0.274,-0.651 -0.651,-0.651 l -0.6,0 c -0.377,0 -0.651,0.273 -0.651,0.651 l 0,2.089 -1.794,-1.076 c -0.124,-0.083 -0.259,-0.127 -0.389,-0.127 -0.242,0 -0.444,0.146 -0.535,0.383 l -0.328,0.491 c -0.125,0.188 -0.159,0.391 -0.096,0.573 0.056,0.164 0.184,0.289 0.36,0.354 l 1.867,1.077 -1.983,1.102 c -0.357,0.239 -0.381,0.616 -0.247,0.885 z" />
        <path
           inkscape:connector-curvature="0"
           style="fill:#349aff;fill-opacity:1"
           id="path50"
           d="m 138.901,133.332 1.874,1.081 -1.879,1.084 c -0.297,0.148 -0.405,0.633 -0.271,0.899 l 0.356,0.538 c 0.138,0.208 0.341,0.322 0.571,0.322 0.107,0 0.216,-0.026 0.329,-0.083 l 1.803,-1.082 0,2.089 c 0,0.378 0.274,0.652 0.651,0.652 l 0.6,0 c 0.377,0 0.651,-0.274 0.651,-0.652 l 0,-2.089 1.794,1.076 c 0.124,0.083 0.259,0.126 0.389,0.126 0.242,0 0.444,-0.146 0.535,-0.382 l 0.328,-0.491 c 0.125,-0.188 0.159,-0.391 0.097,-0.572 -0.057,-0.164 -0.184,-0.29 -0.36,-0.355 l -1.874,-1.08 1.903,-1.1 c 0.357,-0.238 0.382,-0.616 0.248,-0.885 l -0.357,-0.538 c -0.203,-0.305 -0.545,-0.419 -0.9,-0.239 l -1.803,1.082 0,-2.089 c 0,-0.378 -0.274,-0.651 -0.651,-0.651 l -0.6,0 c -0.377,0 -0.651,0.273 -0.651,0.651 l 0,2.089 -1.794,-1.076 c -0.124,-0.083 -0.259,-0.127 -0.389,-0.127 -0.242,0 -0.444,0.146 -0.535,0.383 l -0.328,0.491 c -0.125,0.188 -0.159,0.391 -0.096,0.573 0.056,0.164 0.183,0.289 0.359,0.355 z" />
        <path
           inkscape:connector-curvature="0"
           style="fill:#349aff;fill-opacity:1"
           id="path52"
           d="m 153.546,133.16 1.873,1.081 -1.903,1.099 c -0.357,0.238 -0.381,0.616 -0.247,0.886 l 0.356,0.537 c 0.203,0.306 0.547,0.419 0.9,0.239 l 1.803,-1.081 0,2.089 c 0,0.377 0.273,0.651 0.651,0.651 l 0.6,0 c 0.378,0 0.651,-0.274 0.651,-0.651 l 0,-2.089 1.794,1.075 c 0.124,0.083 0.259,0.127 0.39,0.127 0.241,0 0.443,-0.146 0.535,-0.382 l 0.327,-0.492 c 0.125,-0.187 0.159,-0.39 0.097,-0.572 -0.057,-0.166 -0.187,-0.292 -0.365,-0.356 l -1.765,-0.918 1.886,-1.089 c 0.357,-0.238 0.382,-0.616 0.247,-0.885 l -0.356,-0.538 c -0.203,-0.305 -0.545,-0.419 -0.9,-0.239 l -1.803,1.082 0,-2.089 -0.007,-0.054 c -0.122,-0.489 -0.388,-0.77 -0.73,-0.77 l -0.6,0 c -0.378,0 -0.651,0.274 -0.651,0.651 l 0,2.089 -1.794,-1.075 c -0.124,-0.083 -0.259,-0.127 -0.39,-0.127 -0.241,0 -0.443,0.146 -0.535,0.383 l -0.326,0.491 c -0.125,0.188 -0.16,0.391 -0.098,0.572 0.056,0.164 0.183,0.29 0.36,0.355 z" />
        <path
           inkscape:connector-curvature="0"
           style="fill:#349aff;fill-opacity:1"
           id="path54"
           d="m 168.099,136.934 c 0.138,0.208 0.341,0.322 0.571,0.322 0.107,0 0.216,-0.026 0.329,-0.083 l 1.803,-1.082 0,2.089 c 0,0.378 0.273,0.652 0.651,0.652 l 0.6,0 c 0.377,0 0.651,-0.274 0.651,-0.652 l 0,-2.089 1.794,1.076 c 0.124,0.083 0.259,0.126 0.389,0.126 0.242,0 0.444,-0.146 0.535,-0.382 l 0.328,-0.491 c 0.124,-0.188 0.158,-0.391 0.096,-0.573 -0.056,-0.162 -0.182,-0.287 -0.355,-0.353 l -1.72,-1.075 1.917,-1.106 c 0.357,-0.238 0.382,-0.616 0.247,-0.885 l -0.356,-0.538 c -0.203,-0.305 -0.546,-0.419 -0.9,-0.239 l -1.802,1.082 0,-2.089 c 0,-0.378 -0.274,-0.651 -0.652,-0.651 l -0.6,0 c -0.377,0 -0.651,0.273 -0.651,0.651 l 0,2.089 -1.794,-1.076 c -0.124,-0.083 -0.259,-0.127 -0.389,-0.127 -0.242,0 -0.444,0.146 -0.535,0.383 l -0.328,0.491 c -0.125,0.188 -0.159,0.391 -0.097,0.573 0.057,0.164 0.185,0.289 0.36,0.354 l 1.873,1.081 -1.861,1.073 c -0.274,0.065 -0.477,0.234 -0.544,0.455 -0.053,0.176 -0.012,0.362 0.107,0.495 l 0.333,0.499 z" />
      </g>
      <path
         inkscape:connector-curvature="0"
         style="fill:#349aff;fill-opacity:1"
         id="path56"
         d="m 158.242,158.97 -1.547,0 0,-1.555 c 0,-3.692 -3.004,-6.695 -6.695,-6.695 -3.692,0 -6.696,3.003 -6.696,6.695 l 0,1.547 -1.547,0 c -0.662,0 -1.201,0.539 -1.201,1.201 l 0,12.814 c 0,0.662 0.539,1.201 1.201,1.201 l 16.485,0 c 0.656,0 1.195,-0.533 1.201,-1.193 l 0,-12.814 c 0,-0.662 -0.539,-1.201 -1.201,-1.201 z M 150,153.121 c 2.367,0 4.295,1.927 4.295,4.294 l 0,1.547 -8.589,0 0,-1.547 c 0,-2.367 1.926,-4.294 4.294,-4.294 z m 7.042,8.25 0,10.413 -14.084,0 0,-10.413 14.084,0 z" />
    </g>
  </g>
  <text
     xml:space="preserve"
     style="font-style:normal;font-weight:normal;font-size:45.22789001px;line-height:125%;font-family:sans-serif;letter-spacing:0px;word-spacing:0px;fill:#349aff;fill-opacity:1;stroke:none;stroke-width:1px;stroke-linecap:butt;stroke-linejoin:miter;stroke-opacity:1"
     x="1064.6655"
     y="327.05209"
     id="text4240"
     sodipodi:linespacing="125%"><tspan
       sodipodi:role="line"
       id="tspan4242"
       x="1064.6655"
       y="327.05209"
       style="font-style:normal;font-variant:normal;font-weight:bold;font-stretch:normal;font-size:282.67431641px;font-family:'Noto Sans CJK KR';-inkscape-font-specification:'Noto Sans CJK KR Bold';fill:#349aff;fill-opacity:1">Secure</tspan><tspan
       sodipodi:role="line"
       x="1064.6655"
       y="680.39502"
       id="tspan4244"
       style="font-style:normal;font-variant:normal;font-weight:bold;font-stretch:normal;font-size:282.67431641px;font-family:'Noto Sans CJK KR';-inkscape-font-specification:'Noto Sans CJK KR Bold';fill:#349aff;fill-opacity:1">Two Factor</tspan><tspan
       sodipodi:role="line"
       x="1064.6655"
       y="1033.7379"
       id="tspan4246"
       style="font-style:normal;font-variant:normal;font-weight:bold;font-stretch:normal;font-size:282.67431641px;font-family:'Noto Sans CJK KR';-inkscape-font-specification:'Noto Sans CJK KR Bold';fill:#349aff;fill-opacity:1">Authenticator</tspan></text>
</svg>
